<mxfile host="app.diagrams.net" modified="2024-03-24T07:46:38.247Z" agent="Mozilla/5.0 (Windows NT 10.0; Win64; x64) AppleWebKit/537.36 (KHTML, like Gecko) Chrome/123.0.0.0 Safari/537.36" etag="yUQvBStTo_1fr9zVi4Jk" version="24.1.0" type="github">
  <diagram name="Page-1" id="PM3sXxspZ5xBh2EUKT30">
    <mxGraphModel dx="1581" dy="641" grid="1" gridSize="10" guides="1" tooltips="1" connect="1" arrows="1" fold="1" page="1" pageScale="1" pageWidth="850" pageHeight="1100" math="0" shadow="0">
      <root>
        <mxCell id="0" />
        <mxCell id="1" parent="0" />
        <mxCell id="-dIC9SwRz24hAYLgJW7B-24" value="" style="group" vertex="1" connectable="0" parent="1">
          <mxGeometry x="80" y="70" width="430" height="380" as="geometry" />
        </mxCell>
        <mxCell id="-dIC9SwRz24hAYLgJW7B-12" value="Spark SQL&lt;div&gt;Data Frames&lt;span style=&quot;white-space: pre;&quot;&gt;&#x9;&lt;/span&gt;&lt;/div&gt;" style="rounded=0;whiteSpace=wrap;html=1;" vertex="1" parent="-dIC9SwRz24hAYLgJW7B-24">
          <mxGeometry width="95" height="90" as="geometry" />
        </mxCell>
        <mxCell id="-dIC9SwRz24hAYLgJW7B-20" value="Spark Streaming&lt;span style=&quot;white-space: pre;&quot;&gt;&#x9;&lt;/span&gt;" style="rounded=0;whiteSpace=wrap;html=1;" vertex="1" parent="-dIC9SwRz24hAYLgJW7B-24">
          <mxGeometry x="110" width="95" height="90" as="geometry" />
        </mxCell>
        <mxCell id="-dIC9SwRz24hAYLgJW7B-21" value="Mllib&lt;div&gt;Machine Learning&lt;/div&gt;" style="rounded=0;whiteSpace=wrap;html=1;" vertex="1" parent="-dIC9SwRz24hAYLgJW7B-24">
          <mxGeometry x="220" width="100" height="90" as="geometry" />
        </mxCell>
        <mxCell id="-dIC9SwRz24hAYLgJW7B-22" value="GraphX&lt;div&gt;Graph Computation&lt;/div&gt;" style="rounded=0;whiteSpace=wrap;html=1;" vertex="1" parent="-dIC9SwRz24hAYLgJW7B-24">
          <mxGeometry x="335" width="95" height="90" as="geometry" />
        </mxCell>
        <mxCell id="-dIC9SwRz24hAYLgJW7B-23" value="" style="group" vertex="1" connectable="0" parent="-dIC9SwRz24hAYLgJW7B-24">
          <mxGeometry y="100" width="430" height="280" as="geometry" />
        </mxCell>
        <mxCell id="-dIC9SwRz24hAYLgJW7B-1" value="" style="rounded=0;whiteSpace=wrap;html=1;" vertex="1" parent="-dIC9SwRz24hAYLgJW7B-23">
          <mxGeometry width="429.99999999999994" height="160" as="geometry" />
        </mxCell>
        <mxCell id="-dIC9SwRz24hAYLgJW7B-2" value="Spark Engine" style="rounded=0;whiteSpace=wrap;html=1;" vertex="1" parent="-dIC9SwRz24hAYLgJW7B-23">
          <mxGeometry y="170" width="429.99999999999994" height="30" as="geometry" />
        </mxCell>
        <mxCell id="-dIC9SwRz24hAYLgJW7B-5" value="YARN | Kubernetes | Mesos" style="rounded=0;whiteSpace=wrap;html=1;" vertex="1" parent="-dIC9SwRz24hAYLgJW7B-23">
          <mxGeometry y="210" width="429.99999999999994" height="30" as="geometry" />
        </mxCell>
        <mxCell id="-dIC9SwRz24hAYLgJW7B-6" value="HDFS | S3 | Azure Blob | GCS | CFS" style="rounded=0;whiteSpace=wrap;html=1;" vertex="1" parent="-dIC9SwRz24hAYLgJW7B-23">
          <mxGeometry y="250" width="429.99999999999994" height="30" as="geometry" />
        </mxCell>
        <mxCell id="-dIC9SwRz24hAYLgJW7B-7" value="&lt;b&gt;&lt;font style=&quot;font-size: 15px;&quot;&gt;Spark Core&lt;/font&gt;&lt;/b&gt;" style="text;html=1;align=center;verticalAlign=middle;whiteSpace=wrap;rounded=0;" vertex="1" parent="-dIC9SwRz24hAYLgJW7B-23">
          <mxGeometry x="140" y="30" width="126.19" height="40" as="geometry" />
        </mxCell>
        <mxCell id="-dIC9SwRz24hAYLgJW7B-8" value="Scala" style="rounded=1;whiteSpace=wrap;html=1;" vertex="1" parent="-dIC9SwRz24hAYLgJW7B-23">
          <mxGeometry x="20.476190476190474" y="100" width="71.66666666666666" height="30" as="geometry" />
        </mxCell>
        <mxCell id="-dIC9SwRz24hAYLgJW7B-9" value="Java" style="rounded=1;whiteSpace=wrap;html=1;" vertex="1" parent="-dIC9SwRz24hAYLgJW7B-23">
          <mxGeometry x="122.85714285714285" y="100" width="71.66666666666666" height="30" as="geometry" />
        </mxCell>
        <mxCell id="-dIC9SwRz24hAYLgJW7B-10" value="Python" style="rounded=1;whiteSpace=wrap;html=1;" vertex="1" parent="-dIC9SwRz24hAYLgJW7B-23">
          <mxGeometry x="225.2380952380952" y="100" width="71.66666666666666" height="30" as="geometry" />
        </mxCell>
        <mxCell id="-dIC9SwRz24hAYLgJW7B-11" value="R" style="rounded=1;whiteSpace=wrap;html=1;" vertex="1" parent="-dIC9SwRz24hAYLgJW7B-23">
          <mxGeometry x="322.5" y="100" width="71.66666666666666" height="30" as="geometry" />
        </mxCell>
      </root>
    </mxGraphModel>
  </diagram>
</mxfile>
